# This file uses centimeters as units for non-parametric coordinates.

mtllib panel.mtl
g default
v -12.030762 11.205315 0.000008
v 12.030762 -11.205315 -0.000008
v 12.030762 11.205315 0.000008
v -12.030762 -11.205315 -0.000008
vt 0.000000 1.000000
vt 1.000000 0.000000
vt 1.000000 1.000000
vt 0.000000 0.000000
vn 0.000000 0.000000 1.000000
vn 0.000000 0.000000 1.000000
vn 0.000000 0.000000 1.000000
vn 0.000000 0.000000 1.000000
vn 0.000000 0.000000 1.000000
vn 0.000000 0.000000 1.000000
s off
g scifipanel_obj:sci_fi_panel
usemtl blinn1SG
f 1/1/1 2/2/2 3/3/3
f 1/1/4 4/4/5 2/2/6
