# This file uses centimeters as units for non-parametric coordinates.

mtllib wall.mtl
g default
v 1.656936 -1.000000 1.314820
v 1.656936 -1.000000 -1.314818
v 1.557687 1.619374 1.314820
v 1.557687 1.619374 -1.314819
v 1.557687 -0.155565 1.314819
v 1.557687 -0.155565 -1.314819
v 1.524021 -0.284960 1.314819
v 1.524021 -0.284960 -1.314820
v 1.524021 -0.376287 1.314819
v 1.524021 -0.376287 -1.314820
v 1.656936 -0.565670 1.314819
v 1.656936 -0.565670 -1.314820
v 1.557687 -0.155565 1.314819
v 1.557687 -0.155565 -1.314819
v 1.524021 -0.284960 1.314819
v 1.524021 -0.284960 -1.314820
v 1.524021 -0.376287 1.314819
v 1.524021 -0.376287 -1.314820
v 1.656936 -0.565670 1.314819
v 1.656936 -0.565670 -1.314820
vt 0.000100 0.284036
vt 0.986385 0.284036
vt 0.986385 0.334183
vt 0.000100 0.334183
vt 0.986384 0.999901
vt 0.000100 0.163003
vt 0.000099 0.000101
vt 0.986384 0.000099
vt 0.000100 0.249782
vt 0.986385 0.249781
vt 0.986385 0.163002
vt 0.000099 0.999900
vt 0.986385 0.334183
vt 0.986385 0.284036
vt 0.000100 0.163003
vt 0.986385 0.249781
vt 0.000100 0.334183
vt 0.986385 0.163002
vt 0.000100 0.284036
vt 0.986385 0.284036
vt 0.000100 0.249782
vt 0.000100 0.163003
vt 0.986385 0.249781
vn 0.967780 -0.251797 0.000000
vn 0.967781 -0.251792 0.000000
vn 0.967781 -0.251793 0.000000
vn 1.000000 0.000000 0.000000
vn 1.000000 0.000000 0.000000
vn 1.000000 0.000000 0.000000
vn 1.000000 0.000000 0.000000
vn 1.000000 0.000000 0.000000
vn 1.000000 0.000000 0.000000
vn 1.000000 0.000000 0.000000
vn 1.000000 0.000000 0.000000
vn 1.000000 0.000000 0.000000
vn 0.818527 0.574468 0.000000
vn 0.818527 0.574469 0.000000
vn 0.818527 0.574468 0.000000
vn 0.967780 -0.251798 0.000000
vn 1.000000 0.000000 0.000000
vn 1.000000 0.000000 0.000000
vn 1.000000 0.000000 0.000000
vn 0.818528 0.574467 0.000000
s 1
g SciFi_Wall:Mesh
usemtl SciFi_Wall:Material_019
f 7/1/1 8/2/2 6/3/3
s 2
f 13/4/4 14/13/5 4/5/6
s 3
f 11/6/7 1/7/8 2/8/9
s 4
f 9/9/10 10/10/11 16/14/12
s 5
f 19/15/13 20/11/14 18/16/15
s 1
f 5/17/16 7/1/1 6/3/3
s 2
f 3/12/17 13/4/4 4/5/6
s 3
f 12/18/18 11/6/7 2/8/9
s 4
f 15/19/19 9/9/10 16/20/12
s 5
f 17/21/20 19/22/13 18/23/15
